<?xml version="1.0" standalone="no"?>
<!DOCTYPE svg PUBLIC "-//W3C//DTD SVG 1.1//EN" "http://www.w3.org/Graphics/SVG/1.1/DTD/svg11.dtd" >
<svg xmlns="http://www.w3.org/2000/svg" xmlns:xlink="http://www.w3.org/1999/xlink" version="1.1">
<metadata>
Created by FontForge 20180930 at Mon Oct  8 19:19:22 2018
 By root
Copyright (c) 1991 Adobe Systems Incorporated.  All Rights Reserved.Kabel is a trademark of Linotype-Hell AG and/or its subsidiaries.
</metadata>
<defs>
<font id="Kabel-Heavy" horiz-adv-x="407" >
  <font-face 
    font-family="Kabel-Heavy"
    font-weight="900"
    font-stretch="normal"
    units-per-em="1000"
    panose-1="2 11 10 0 0 0 0 0 0 0"
    ascent="800"
    descent="-200"
    x-height="382"
    cap-height="724"
    bbox="-56 -250 1110 932"
    underline-thickness="50"
    underline-position="-100"
    unicode-range="U+0020-2122"
  />
    <missing-glyph />
    <glyph glyph-name="space" unicode=" " horiz-adv-x="260" 
 />
    <glyph glyph-name="exclam" unicode="!" horiz-adv-x="260" 
d="M75 152h110v572l-110 -8v-564zM75 0h110v110h-110v-110z" />
    <glyph glyph-name="quotedbl" unicode="&#x22;" 
d="M243 457h84v263h-84v-263zM80 457h84v263h-84v-263z" />
    <glyph glyph-name="numbersign" unicode="#" horiz-adv-x="520" 
d="M188 243l20 129h124l-20 -129h-124zM274 0h68l28 179h104v64h-94l20 129h103v64h-93l28 179h-68l-28 -179h-124l28 179h-68l-28 -179h-104v-64h94l-20 -129h-103v-64h93l-28 -179h68l28 179h124z" />
    <glyph glyph-name="dollar" unicode="$" horiz-adv-x="520" 
d="M230 442q-33 16 -51 37.5t-18 53.5q0 36 19 62.5t50 37.5v-191zM294 294q37 -17 57 -39.5t20 -59.5q0 -38 -21 -68.5t-56 -42.5v210zM230 -64h64v50q82 13 134.5 73.5t52.5 142.5q0 49 -15.5 84.5t-42 58.5t-56 38t-73.5 32v225q31 -6 58.5 -28.5t54.5 -61.5l70 73
q-35 51 -80 81t-103 34v46h-64v-49q-78 -14 -128.5 -70t-50.5 -135q0 -50 15 -85t40.5 -58t54 -37.5t69.5 -29.5v-236q-63 17 -113 96l-78 -77q72 -108 191 -121v-46z" />
    <glyph glyph-name="percent" unicode="%" horiz-adv-x="648" 
d="M22 453q0 -75 35.5 -118.5t89.5 -43.5t89.5 43.5t35.5 118.5t-35.5 118.5t-89.5 43.5t-89.5 -43.5t-35.5 -118.5zM90 453q0 49 15.5 75.5t41.5 26.5t41.5 -26.5t15.5 -75.5t-15.5 -75.5t-41.5 -26.5t-41.5 26.5t-15.5 75.5zM376 148q0 -75 35.5 -118.5t89.5 -43.5
t89.5 43.5t35.5 118.5t-35.5 118.5t-89.5 43.5t-89.5 -43.5t-35.5 -118.5zM444 148q0 49 15.5 75.5t41.5 26.5t41.5 -26.5t15.5 -75.5t-15.5 -75.5t-41.5 -26.5t-41.5 26.5t-15.5 75.5zM104 -25h68l373 651h-68z" />
    <glyph glyph-name="ampersand" unicode="&#x26;" horiz-adv-x="556" 
d="M244 374q-20 23 -32 44.5t-12 39.5q0 28 17.5 43.5t41.5 15.5q22 0 39 -16t17 -39q0 -18 -15.5 -39.5t-55.5 -48.5zM373 241l-69 69q48 26 76.5 70t28.5 86q0 26 -11 50t-31.5 43.5t-48.5 30.5t-60 11q-31 0 -58.5 -11t-48.5 -30.5t-33 -45t-12 -54.5q0 -36 16 -72
t45 -65q-65 -38 -100 -84.5t-35 -97.5q0 -64 44 -108.5t108 -44.5q52 0 97 26.5t93 87.5l106 -114l73 66l-114 120l78 86l-59 74zM310 168q-42 -48 -67.5 -67t-49.5 -19q-25 0 -44 19t-19 42q0 22 20.5 46.5t78.5 65.5z" />
    <glyph glyph-name="quotesingle" unicode="'" horiz-adv-x="240" 
d="M78 457h84v263h-84v-263z" />
    <glyph glyph-name="parenleft" unicode="(" horiz-adv-x="370" 
d="M302 743q-114 -104 -173 -220.5t-59 -238.5t59 -238.5t173 -220.5l65 74q-90 80 -142.5 180.5t-52.5 204.5q0 105 52.5 205t142.5 180z" />
    <glyph glyph-name="parenright" unicode=")" horiz-adv-x="370" 
d="M68 -175q114 104 173 220.5t59 238.5t-59 238.5t-173 220.5l-65 -74q90 -80 142.5 -180t52.5 -205q0 -104 -52.5 -204.5t-142.5 -180.5z" />
    <glyph glyph-name="asterisk" unicode="*" horiz-adv-x="278" 
d="M81 492l58 76l58 -76l39 33l-60 67l83 30l-18 44l-77 -30v84h-50v-84l-77 30l-18 -44l83 -30l-60 -67z" />
    <glyph glyph-name="plus" unicode="+" horiz-adv-x="600" 
d="M258 295h-211v-84h211v-211h84v211h211v84h-211v211h-84v-211z" />
    <glyph glyph-name="comma" unicode="," horiz-adv-x="260" 
d="M-10 -121h90l126 263h-110z" />
    <glyph glyph-name="hyphen" unicode="-" horiz-adv-x="315" 
d="M47 164h221v90h-221v-90z" />
    <glyph glyph-name="period" unicode="." horiz-adv-x="260" 
d="M75 0h110v110h-110v-110z" />
    <glyph glyph-name="slash" unicode="/" 
d="M12 -18h84l299 756h-84z" />
    <glyph glyph-name="zero" unicode="0" horiz-adv-x="520" 
d="M147 301q0 102 32.5 157t80.5 55t80.5 -55t32.5 -157q0 -103 -32.5 -158t-80.5 -55t-80.5 55t-32.5 158zM37 301q0 -76 18 -136t49 -99.5t71.5 -59.5t84.5 -20t84.5 20t71.5 59.5t49 99.5t18 136t-18 135.5t-49 99.5t-71.5 59.5t-84.5 19.5t-84.5 -20t-71.5 -59t-49 -99
t-18 -136z" />
    <glyph glyph-name="one" unicode="1" horiz-adv-x="333" 
d="M143 -4l106 8v621q-45 -38 -95 -71t-120 -76q-32 -19 -34 -20l43 -76l100 63v-449z" />
    <glyph glyph-name="two" unicode="2" horiz-adv-x="444" 
d="M219 343q-45 11 -68 35t-23 57q0 36 26 57t64 21q39 0 65 -22t26 -60q0 -27 -10.5 -56.5t-31.5 -56.5l-246 -318h371l31 98h-206l91 114q57 71 82 123t25 96q0 39 -14 73t-40.5 59t-61 38.5t-73.5 13.5q-42 0 -79 -14.5t-64 -40t-42 -59t-15 -70.5q0 -59 36 -98.5
t101 -61.5z" />
    <glyph glyph-name="three" unicode="3" horiz-adv-x="426" 
d="M89 450q15 33 41.5 50t55.5 17q37 0 62.5 -22t25.5 -60q0 -39 -25.5 -60.5t-78.5 -21.5h-42v-94h47q47 0 73 -24t26 -63q0 -37 -25 -62.5t-65 -25.5q-62 0 -108 69l-66 -75q33 -43 80 -67.5t100 -24.5q43 0 79.5 14t63 39t41 58t14.5 71q0 47 -25 83t-73 55q90 42 90 137
q0 76 -54 124t-132 48q-52 0 -98.5 -25t-81.5 -77z" />
    <glyph glyph-name="four" unicode="4" horiz-adv-x="462" 
d="M440 238h-74v363h-84l-302 -457h288v-148l98 8v140h74v94zM152 238l114 189h2v-189h-116z" />
    <glyph glyph-name="five" unicode="5" 
d="M10 39q35 -27 75.5 -40t82.5 -13q44 0 82.5 17t68 47.5t46 69t16.5 80.5q0 46 -17.5 86t-48.5 69t-70.5 44.5t-83.5 15.5q-9 0 -19 -4v92h182l45 98h-325v-317q52 37 111 37q48 0 82 -34.5t34 -87.5t-34.5 -86t-82.5 -33q-26 0 -49 10.5t-51 29.5z" />
    <glyph glyph-name="six" unicode="6" horiz-adv-x="500" 
d="M286 625q-76 -79 -123.5 -133t-78 -100.5t-45 -90.5t-14.5 -92q0 -95 60 -159t165 -64q52 0 93.5 18t71 49.5t45 72t15.5 85.5q0 92 -55.5 148t-140.5 56q-37 0 -65 -11l-2 2q61 71 165 170zM131 202q0 51 34 85t85 34q52 0 85.5 -34t33.5 -85q0 -50 -34 -84t-85 -34
t-85 34t-34 84z" />
    <glyph glyph-name="seven" unicode="7" horiz-adv-x="352" 
d="M73 -4l118 8l172 597h-383l-6 -98h255z" />
    <glyph glyph-name="eight" unicode="8" horiz-adv-x="444" 
d="M138 164q0 33 20.5 55.5t65.5 36.5q45 -14 65.5 -36.5t20.5 -55.5q0 -38 -24 -61t-62 -23q-37 0 -61.5 23t-24.5 61zM138 438q0 38 24.5 60.5t61.5 22.5t61.5 -22.5t24.5 -60.5q0 -32 -20.5 -55t-65.5 -37q-45 14 -65.5 37t-20.5 55zM32 440q0 -47 22.5 -82.5t60.5 -56.5
q-38 -20 -60.5 -56t-22.5 -83q0 -35 14.5 -67t40.5 -56.5t61 -38.5t75 -14q39 0 74 14t60.5 38.5t40 56.5t14.5 67q0 47 -22.5 83t-60.5 56q38 21 60.5 56.5t22.5 82.5q0 35 -14.5 67t-40 56t-60.5 38t-74 14q-40 0 -75 -14t-61 -38.5t-40.5 -56t-14.5 -66.5z" />
    <glyph glyph-name="nine" unicode="9" horiz-adv-x="500" 
d="M214 -25q77 80 124 134t77.5 100.5t45 90.5t14.5 92q0 95 -60 159t-165 64q-51 0 -93 -18t-71.5 -49.5t-45 -72t-15.5 -85.5q0 -92 55.5 -148t140.5 -56q37 0 65 11l2 -2q-61 -71 -165 -170zM131 399q0 50 34 84t85 34t85 -34t34 -84t-33.5 -84.5t-85.5 -34.5
q-51 0 -85 34.5t-34 84.5z" />
    <glyph glyph-name="colon" unicode=":" horiz-adv-x="260" 
d="M75 272h110v110h-110v-110zM75 0h110v110h-110v-110z" />
    <glyph glyph-name="semicolon" unicode=";" horiz-adv-x="260" 
d="M-10 -121h90l126 263h-110zM96 272h110v110h-110v-110z" />
    <glyph glyph-name="less" unicode="&#x3c;" horiz-adv-x="600" 
d="M47 216l506 -225v84l-404 178l404 178v84l-506 -225v-74z" />
    <glyph glyph-name="equal" unicode="=" horiz-adv-x="600" 
d="M47 315h506v84h-506v-84zM47 107h506v84h-506v-84z" />
    <glyph glyph-name="greater" unicode="&#x3e;" horiz-adv-x="600" 
d="M451 253l-404 -178v-84l506 225v74l-506 225v-84z" />
    <glyph glyph-name="question" unicode="?" horiz-adv-x="520" 
d="M188 152h110v79q0 27 9.5 47.5t36.5 51.5q42 48 66.5 97t24.5 92q0 98 -55 154.5t-140 56.5q-81 0 -132 -49t-67 -144l90 -34q9 67 34.5 98t69.5 31q39 0 66.5 -29.5t27.5 -78.5q0 -37 -19.5 -70.5t-75.5 -95.5q-17 -19 -25.5 -30t-13 -22.5t-6 -25.5t-1.5 -39v-89z
M188 0h110v110h-110v-110z" />
    <glyph glyph-name="at" unicode="@" horiz-adv-x="800" 
d="M505 401q0 -29 -11 -62.5t-31 -63t-47.5 -47.5t-57.5 -18q-43 0 -66.5 27.5t-23.5 71.5q0 33 11.5 66.5t32.5 61.5t48.5 44.5t58.5 16.5q36 0 61 -29t25 -68zM535 496q-19 39 -49.5 57.5t-70.5 18.5q-48 0 -90 -23t-72 -62.5t-46.5 -88t-16.5 -98.5q0 -69 38 -116.5
t103 -47.5q38 0 70.5 16.5t55.5 43.5h2q9 -60 69 -60q33 0 76 19.5t83 57t65.5 92.5t25.5 122q0 68 -28.5 125.5t-79 99t-116.5 64t-138 22.5q-80 0 -152 -28.5t-126.5 -80.5t-85 -121t-30.5 -147q0 -79 30.5 -148.5t85 -121.5t127.5 -80.5t156 -28.5q100 0 185 45t137 126
h-84q-36 -41 -101 -69t-133 -28t-127.5 23t-104 64.5t-69 96.5t-24.5 117q0 61 23 117t65.5 98.5t101 67t126.5 24.5q56 0 107.5 -17.5t91.5 -51t62.5 -80t22.5 -101.5q0 -38 -12.5 -75t-32.5 -66.5t-44 -46t-46 -16.5q-25 0 -25 21q0 10 3 22.5t7 26.5l80 275h-74z" />
    <glyph glyph-name="A" unicode="A" horiz-adv-x="741" 
d="M282 359l98 177l86 -177h-184zM80 -18l154 287h272l146 -287l109 22l-381 734l-400 -723z" />
    <glyph glyph-name="B" unicode="B" horiz-adv-x="519" 
d="M56 0h211q97 0 160 54.5t63 148.5q0 60 -31.5 103t-90.5 60v2q52 17 84 60t32 107q0 86 -59 135.5t-170 49.5h-199v-720zM166 321h69q67 0 106 -31.5t39 -85.5q0 -52 -31.5 -83t-93.5 -31h-89v231zM166 630h107q42 0 71.5 -28t29.5 -70q0 -56 -37 -91.5t-99 -35.5h-72
v225z" />
    <glyph glyph-name="C" unicode="C" horiz-adv-x="537" 
d="M505 724q-18 7 -45 10.5t-56 3.5q-83 0 -153 -28.5t-119.5 -80.5t-76 -121.5t-26.5 -149.5q0 -78 26 -147t76.5 -120.5t124 -80t164.5 -28.5q48 0 85 5l20 110q-50 -13 -93 -13q-62 0 -116 21t-93.5 59t-61.5 89t-22 109q0 65 24 116.5t64.5 87t89.5 53t98 17.5
q62 0 110 -24z" />
    <glyph glyph-name="D" unicode="D" horiz-adv-x="667" 
d="M56 0h201q72 0 138 26t117.5 74t80.5 114.5t29 145.5t-29 145.5t-80 114.5t-117.5 74t-138.5 26h-201v-720zM166 622h103q51 0 95.5 -20t77.5 -56t51.5 -85t18.5 -106q0 -122 -76.5 -193.5t-206.5 -71.5h-63v532z" />
    <glyph glyph-name="E" unicode="E" horiz-adv-x="463" 
d="M56 0h373l42 98h-305v223h217v94h-217v207h270l-26 98h-354v-720z" />
    <glyph glyph-name="F" unicode="F" 
d="M56 -4l110 8v317h188v94h-188v207h261l-26 98h-345v-724z" />
    <glyph glyph-name="G" unicode="G" horiz-adv-x="741" 
d="M690 625q-110 113 -281 113q-76 0 -144.5 -27t-122 -78t-83.5 -121t-30 -152t30 -152t83.5 -121t122 -78t144.5 -27q84 0 152 26t144 77v320h-262v-94h156v-165q-32 -26 -83 -44t-104 -18q-52 0 -101 19.5t-88 56.5t-61.5 88t-22.5 112t22.5 112t61.5 88t88 56.5
t101 19.5q59 0 110 -21t96 -61z" />
    <glyph glyph-name="H" unicode="H" horiz-adv-x="722" 
d="M556 -4l110 8v720l-110 -8v-301h-390v309l-110 -8v-720l110 8v317h390v-325z" />
    <glyph glyph-name="I" unicode="I" horiz-adv-x="222" 
d="M56 -4l110 8v720l-110 -8v-720z" />
    <glyph glyph-name="J" unicode="J" horiz-adv-x="333" 
d="M167 225q0 -74 -40.5 -107.5t-107.5 -33.5q-14 0 -36 2v-98q13 -6 37 -6q50 0 95 11.5t81.5 37.5t58.5 70t22 106v517l-110 -8v-491z" />
    <glyph glyph-name="K" unicode="K" horiz-adv-x="537" 
d="M559 28l-263 331l257 322l-91 57l-294 -369h-2v355l-110 -8v-720l110 8v347h2l286 -369z" />
    <glyph glyph-name="L" unicode="L" horiz-adv-x="481" 
d="M56 0h393l42 102h-325v622l-110 -8v-716z" />
    <glyph glyph-name="M" unicode="M" horiz-adv-x="870" 
d="M435 196l-329 542l-82 -734l110 -8l41 423h2l258 -423l258 423h2l41 -423l110 8l-82 734z" />
    <glyph glyph-name="N" unicode="N" horiz-adv-x="704" 
d="M167 472l476 -499v751l-106 -8v-469l-476 491v-742l106 8v468z" />
    <glyph glyph-name="O" unicode="O" horiz-adv-x="834" 
d="M29 360q0 -80 31.5 -149.5t87 -121t125.5 -79.5t144 -28t144.5 28t125.5 79.5t86.5 121t31.5 149.5t-31.5 149.5t-87 121t-125.5 79.5t-144 28t-144.5 -28t-125.5 -79.5t-86.5 -121t-31.5 -149.5zM139 360q0 57 22 107.5t61 88.5t89.5 59t105.5 21t105.5 -21t89.5 -58.5
t61 -88.5t22 -108t-22 -107.5t-61 -88.5t-89.5 -59t-105.5 -21t-105.5 21t-89.5 59t-61 88.5t-22 107.5z" />
    <glyph glyph-name="P" unicode="P" horiz-adv-x="519" 
d="M56 -4l110 8v287q24 -3 55 -3q141 0 213.5 63t72.5 162q0 95 -68 151t-177 56h-206v-724zM166 630h89q66 0 104 -34.5t38 -88.5q0 -59 -41.5 -92t-113.5 -33q-49 0 -76 7v241z" />
    <glyph glyph-name="Q" unicode="Q" horiz-adv-x="834" 
d="M724 -4l73 67l-69 73q37 47 57 104t20 120q0 80 -31.5 149.5t-87 121t-125.5 79.5t-144 28t-144.5 -28t-125.5 -79.5t-86.5 -121t-31.5 -149.5t31.5 -149.5t87 -121t125.5 -79.5t144 -28q65 0 127.5 21.5t113.5 61.5zM585 141q-35 -27 -78.5 -42t-89.5 -15
q-55 0 -105.5 21t-89.5 59t-61 88.5t-22 107.5t22 107.5t61 88.5t89.5 59t105.5 21t105.5 -21t89.5 -58.5t61 -88.5t22 -108q0 -79 -43 -145l-54 56l-73 -67z" />
    <glyph glyph-name="R" unicode="R" horiz-adv-x="500" 
d="M166 630h57q56 0 94.5 -32t38.5 -86q0 -52 -36.5 -85t-95.5 -33h-58v236zM56 -4l110 8v322h2l248 -344l101 46l-223 295q78 13 123 65.5t45 126.5q0 90 -64 147.5t-187 57.5h-155v-724z" />
    <glyph glyph-name="S" unicode="S" horiz-adv-x="500" 
d="M467 623q-39 54 -88.5 84.5t-114.5 30.5q-46 0 -87 -15.5t-71.5 -44t-47.5 -66.5t-17 -82q0 -51 16 -87t42 -59t54.5 -36.5t74.5 -30.5q35 -13 55.5 -22t38.5 -22.5t28.5 -32.5t10.5 -45q0 -47 -32 -81t-79 -34q-40 0 -76.5 26.5t-66.5 73.5l-78 -77q82 -121 217 -121
q48 0 89 17t71.5 47.5t47.5 70.5t17 85q0 50 -16 85t-43 58.5t-55.5 37.5t-74.5 32q-35 13 -55 22.5t-36 21.5q-40 29 -40 74q0 48 32 77.5t79 29.5q38 0 70.5 -23t64.5 -67z" />
    <glyph glyph-name="T" unicode="T" horiz-adv-x="480" 
d="M185 -4l110 8v618h184v98h-467l-32 -98h205v-626z" />
    <glyph glyph-name="U" unicode="U" horiz-adv-x="630" 
d="M464 266q0 -51 -11.5 -87t-32 -58t-47 -31.5t-58.5 -9.5t-58.5 9.5t-47 31.5t-32 58t-11.5 87v458l-110 -8v-480q0 -67 22 -116t59 -79.5t83 -44.5t95 -14t95 14t83 44.5t59 79.5t22 116v488l-110 -8v-450z" />
    <glyph glyph-name="V" unicode="V" horiz-adv-x="593" 
d="M294 -27l325 747h-114l-211 -484l-202 484h-118z" />
    <glyph glyph-name="W" unicode="W" horiz-adv-x="890" 
d="M607 -27l309 747h-114l-202 -492l-102 225l122 267h-110l-65 -151l-65 151h-110l122 -267l-102 -225l-202 492h-114l309 -747l162 361z" />
    <glyph glyph-name="X" unicode="X" horiz-adv-x="574" 
d="M493 -18l93 54l-234 333l225 312l-92 57l-198 -274l-198 274l-92 -57l225 -312l-234 -333l93 -54l206 291z" />
    <glyph glyph-name="Y" unicode="Y" horiz-adv-x="519" 
d="M230 278l-119 -268l105 -28l320 712l-101 44l-150 -344l-209 344l-102 -44z" />
    <glyph glyph-name="Z" unicode="Z" horiz-adv-x="611" 
d="M5 0h583l18 98h-408l400 622h-568l-18 -98h393z" />
    <glyph glyph-name="bracketleft" unicode="[" horiz-adv-x="296" 
d="M80 -152h206v84h-112v704h112v84h-206v-872z" />
    <glyph glyph-name="backslash" unicode="\" 
d="M311 -18h84l-299 756h-84z" />
    <glyph glyph-name="bracketright" unicode="]" horiz-adv-x="296" 
d="M122 -68h-112v-84h206v872h-206v-84h112v-704z" />
    <glyph glyph-name="asciicircum" unicode="^" horiz-adv-x="600" 
d="M459 187h84l-204 414h-78l-204 -414h84l159 330z" />
    <glyph glyph-name="underscore" unicode="_" horiz-adv-x="500" 
d="M0 -125h500v50h-500v-50z" />
    <glyph glyph-name="grave" unicode="`" horiz-adv-x="184" 
d="M74 446h74l-58 124h-124z" />
    <glyph glyph-name="a" unicode="a" horiz-adv-x="389" 
d="M246 229q-34 35 -90 35q-53 0 -91.5 -37.5t-38.5 -99.5q0 -64 34 -101.5t93 -37.5q36 0 61 12t34 37h2v-41l90 8v285q0 53 -35 75t-115 22q-34 0 -87 -7l-27 -90q7 1 19 4q52 9 75 9q43 0 59.5 -10.5t16.5 -33.5v-29zM124 126q0 22 16.5 35t44.5 13t44.5 -13t16.5 -35
q0 -54 -61 -54t-61 54z" />
    <glyph glyph-name="b" unicode="b" horiz-adv-x="481" 
d="M43 198q0 -102 58 -156t158 -54q82 0 139 54t57 149t-57 149t-139 54q-32 0 -63.5 -14.5t-54.5 -41.5v386l-98 -8v-518zM141 191q0 48 30.5 80.5t75.5 32.5q47 0 78.5 -32t31.5 -81t-31.5 -81t-78.5 -32q-45 0 -75.5 32.5t-30.5 80.5z" />
    <glyph glyph-name="c" unicode="c" horiz-adv-x="389" 
d="M369 347q-38 23 -71 35t-75 12q-37 0 -72.5 -13.5t-63.5 -39.5t-44.5 -62.5t-16.5 -80.5q0 -96 57.5 -153t146.5 -57q33 0 75 12.5t67 34.5l-39 84q-24 -22 -47.5 -31.5t-54.5 -9.5q-46 0 -76.5 30t-30.5 85q0 50 31.5 80.5t84.5 30.5q45 0 82 -34z" />
    <glyph glyph-name="d" unicode="d" horiz-adv-x="500" 
d="M359 338q-48 56 -128 56q-88 0 -146.5 -53.5t-58.5 -149.5t58.5 -149.5t146.5 -53.5q41 0 70 9.5t58 36.5v-38l98 8v720l-98 -8v-378zM359 191q0 -49 -32.5 -81t-83.5 -32q-53 0 -86 32t-33 81t33 81t86 32q51 0 83.5 -32t32.5 -81z" />
    <glyph glyph-name="e" unicode="e" 
d="M408 276q-32 60 -76.5 89t-108.5 29q-37 0 -72.5 -13.5t-63.5 -39.5t-44.5 -62.5t-16.5 -80.5q0 -96 57.5 -153t146.5 -57q46 0 83.5 14t66.5 45l-36 85q-29 -32 -55 -46t-57 -14q-49 0 -80 39zM124 181q-4 9 -4 22q0 47 32.5 77t64.5 30q39 0 70 -21z" />
    <glyph glyph-name="f" unicode="f" horiz-adv-x="222" 
d="M43 -4l98 8v288h86v90h-86v157q0 49 23.5 72.5t72.5 28.5v98q-97 -8 -145.5 -57.5t-48.5 -133.5v-551z" />
    <glyph glyph-name="g" unicode="g" 
d="M29 -89q29 -40 67.5 -60t83.5 -20q79 0 132 45t53 119q0 63 -56 116q34 25 49 55t15 66q0 23 -9.5 48.5t-25.5 41.5h34l13 64q-48 -4 -74 -4q-20 0 -58 6t-58 6q-33 0 -63.5 -10t-55.5 -30.5t-39.5 -52t-14.5 -73.5q0 -38 19.5 -71.5t53.5 -51.5l-22 -71q24 18 50 29
t50 11q37 0 65.5 -22.5t28.5 -58.5q0 -33 -23 -55.5t-58 -22.5q-29 0 -54.5 17.5t-43.5 51.5zM116 232q0 34 22 53t58 19q35 0 57 -19t22 -53q0 -35 -21.5 -54.5t-57.5 -19.5t-58 19.5t-22 54.5z" />
    <glyph glyph-name="h" unicode="h" 
d="M43 -4l98 8v205q0 39 17.5 63t45.5 24q62 0 62 -79v-221l98 8v273q0 53 -35.5 85t-88.5 32q-31 0 -55.5 -13t-41.5 -44h-2v387l-98 -8v-720z" />
    <glyph glyph-name="i" unicode="i" horiz-adv-x="184" 
d="M43 -4l98 8v382l-98 -8v-382zM43 468h98v102h-98v-102z" />
    <glyph glyph-name="j" unicode="j" horiz-adv-x="184" 
d="M43 0q0 -29 -9 -43t-28 -20v-106q26 3 49.5 12t43 26t31 43t11.5 61v413l-98 -8v-378zM43 468h98v102h-98v-102z" />
    <glyph glyph-name="k" unicode="k" 
d="M43 -4l98 8v177l187 -199l88 46l-154 164l153 155l-76 59l-198 -201v519l-98 -8v-720z" />
    <glyph glyph-name="l" unicode="l" horiz-adv-x="184" 
d="M43 -4l98 8v720l-98 -8v-720z" />
    <glyph glyph-name="m" unicode="m" horiz-adv-x="610" 
d="M469 -4l98 8v264q0 59 -33.5 92.5t-90.5 33.5q-38 0 -62.5 -14t-46.5 -46q-19 31 -42 45.5t-56 14.5q-30 0 -58.5 -15.5t-38.5 -39.5h-2v47l-94 -8v-382l98 8v208q0 43 15.5 63.5t42.5 20.5q28 0 42.5 -17t14.5 -57v-226l98 8v208q0 43 15.5 63.5t42.5 20.5
q28 0 42.5 -17t14.5 -57v-226z" />
    <glyph glyph-name="n" unicode="n" 
d="M43 -4l98 8v205q0 39 17.5 63t45.5 24q62 0 62 -79v-221l98 8v273q0 53 -35.5 85t-88.5 32q-31 0 -55.5 -13t-41.5 -44h-2v49l-98 -8v-382z" />
    <glyph glyph-name="o" unicode="o" horiz-adv-x="462" 
d="M231 78q-45 0 -76 32t-31 81t31 81t76 32q46 0 76.5 -32t30.5 -81t-30.5 -81t-76.5 -32zM26 191q0 -39 15.5 -75.5t44 -65.5t65.5 -45.5t80 -16.5t80.5 16.5t65.5 45t43.5 65.5t15.5 76t-15.5 76t-43.5 65.5t-65.5 45t-80.5 16.5t-80.5 -16.5t-65.5 -45t-43.5 -65.5
t-15.5 -76z" />
    <glyph glyph-name="p" unicode="p" horiz-adv-x="481" 
d="M43 -169l98 8v195q28 -27 56.5 -36.5t61.5 -9.5q82 0 139 54t57 149t-57 149t-139 54q-32 0 -63.5 -14.5t-54.5 -41.5v48l-98 -8v-547zM141 191q0 48 30.5 80.5t75.5 32.5q47 0 78.5 -32t31.5 -81t-31.5 -81t-78.5 -32q-45 0 -75.5 32.5t-30.5 80.5z" />
    <glyph glyph-name="q" unicode="q" horiz-adv-x="500" 
d="M359 338q-48 56 -128 56q-88 0 -146.5 -53.5t-58.5 -149.5t58.5 -149.5t146.5 -53.5q41 0 70 9.5t58 36.5v-203l98 8v547l-98 -8v-40zM359 191q0 -49 -32.5 -81t-83.5 -32q-53 0 -86 32t-33 81t33 81t86 32q51 0 83.5 -32t32.5 -81z" />
    <glyph glyph-name="r" unicode="r" horiz-adv-x="241" 
d="M43 378v-382l98 8v198q0 49 20 71.5t68 22.5h22v98q-35 0 -63 -12.5t-45 -34.5h-2v39z" />
    <glyph glyph-name="s" unicode="s" horiz-adv-x="315" 
d="M284 317q-20 33 -53 55t-69 22q-56 0 -93 -37.5t-37 -90.5q0 -25 8.5 -43t22.5 -29.5t29 -18t39 -14.5q33 -12 48.5 -22t15.5 -31q0 -20 -12.5 -31t-31.5 -11q-20 0 -37.5 11.5t-30.5 28.5l-57 -66q49 -52 118 -52q61 0 103 38.5t42 95.5q0 30 -9 50.5t-23.5 32
t-29.5 17.5t-40 14q-32 9 -46.5 18t-14.5 29q0 16 11 24.5t28 8.5t32.5 -12.5t27.5 -40.5z" />
    <glyph glyph-name="t" unicode="t" horiz-adv-x="259" 
d="M22 292h37v-169q0 -65 41.5 -96t115.5 -31h21v90h-14q-32 0 -49 17t-17 54v135h80v90h-80v169l-98 -48v-121h-37v-90z" />
    <glyph glyph-name="u" unicode="u" 
d="M43 105q0 -53 35.5 -85t88.5 -32q31 0 55.5 13t41.5 44h2v-49l98 8v382l-98 -8v-205q0 -38 -17.5 -62.5t-45.5 -24.5q-62 0 -62 79v221l-98 -8v-273z" />
    <glyph glyph-name="v" unicode="v" horiz-adv-x="370" 
d="M162 0h44l173 376l-100 18l-94 -210l-94 210l-100 -18z" />
    <glyph glyph-name="w" unicode="w" horiz-adv-x="556" 
d="M135 0h44l99 208l99 -208h44l137 382l-98 12l-72 -204l-88 196h-44l-88 -200l-72 208l-98 -12z" />
    <glyph glyph-name="x" unicode="x" horiz-adv-x="370" 
d="M123 190l-125 -164l93 -38l94 131l94 -131l93 38l-123 164l116 159l-88 45l-92 -128l-92 128l-88 -45z" />
    <glyph glyph-name="y" unicode="y" 
d="M146 41l-98 -202l104 -8l264 545l-99 18l-113 -239l-114 239l-99 -18z" />
    <glyph glyph-name="z" unicode="z" horiz-adv-x="315" 
d="M-2 0h319v90h-163l163 292h-268l-27 -90h139z" />
    <glyph glyph-name="braceleft" unicode="{" horiz-adv-x="296" 
d="M21 252q33 -2 58 -33.5t25 -80.5v-164q0 -59 32.5 -92.5t79.5 -33.5h78v84h-43q-31 0 -42 19.5t-11 53.5v149q0 32 -9.5 55.5t-23.5 38.5t-28.5 23.5t-25.5 11.5v2q11 3 25 11t28.5 23.5t24 39.5t9.5 55v149q0 34 11 53.5t42 19.5h43v84h-78q-47 0 -79.5 -33.5
t-32.5 -92.5v-164q0 -49 -25 -80.5t-58 -33.5v-64z" />
    <glyph glyph-name="bar" unicode="|" horiz-adv-x="222" 
d="M69 -250h84v1000h-84v-1000z" />
    <glyph glyph-name="braceright" unicode="}" horiz-adv-x="296" 
d="M2 636h43q31 0 42 -19.5t11 -53.5v-149q0 -31 9.5 -55t23.5 -39t28.5 -23.5t25.5 -11.5v-2q-11 -3 -25 -11t-28.5 -23.5t-24 -39t-9.5 -55.5v-149q0 -34 -11 -53.5t-42 -19.5h-43v-84h78q47 0 79.5 33.5t32.5 92.5v164q0 49 25 80.5t58 33.5v64q-33 2 -58 33.5t-25 80.5
v164q0 59 -32.5 92.5t-79.5 33.5h-78v-84z" />
    <glyph glyph-name="asciitilde" unicode="~" horiz-adv-x="600" 
d="M105 170q44 76 88 76q17 0 41 -9t56 -26q30 -16 59.5 -25.5t56.5 -9.5q38 0 70 19.5t61 65.5l-42 75q-44 -76 -88 -76q-18 0 -44 9t-53 25q-29 17 -58.5 26.5t-57.5 9.5q-38 0 -70 -19.5t-61 -65.5z" />
    <glyph glyph-name="quotesinglbase" unicode="&#x201a;" horiz-adv-x="240" 
d="M12 -121h90l126 263h-110z" />
    <glyph glyph-name="florin" unicode="&#x192;" horiz-adv-x="520" 
d="M156 80q-12 -74 -35.5 -101.5t-66.5 -27.5q-20 0 -35 5l-23 -80q32 -9 58 -9q80 0 131.5 46.5t69.5 151.5l41 243h84l12 74h-83q8 86 35.5 117.5t72.5 31.5q6 0 20 -2l10 -1l23 73q-12 8 -27.5 11t-33.5 3q-70 0 -119.5 -43.5t-64.5 -109.5l-18 -80h-76l-12 -74h75z" />
    <glyph glyph-name="quotedblbase" unicode="&#x201e;" 
d="M4 -121h90l126 263h-110zM187 -121h90l126 263h-110z" />
    <glyph glyph-name="ellipsis" unicode="&#x2026;" horiz-adv-x="1000" 
d="M112 0h110v110h-110v-110zM445 0h110v110h-110v-110zM778 0h110v110h-110v-110z" />
    <glyph glyph-name="dagger" unicode="&#x2020;" horiz-adv-x="480" 
d="M193 446h-120v-84h120v-466l94 8v458h120v84h-120v169l-94 -8v-161z" />
    <glyph glyph-name="daggerdbl" unicode="&#x2021;" horiz-adv-x="480" 
d="M195 36v-140l90 8v132h122v84h-122v271h122v84h-122v140l-90 -8v-132h-122v-84h122v-271h-122v-84h122z" />
    <glyph glyph-name="circumflex" unicode="&#x2c6;" horiz-adv-x="184" 
d="M-45 446h98l39 59l39 -59h98l-82 124h-110z" />
    <glyph glyph-name="perthousand" unicode="&#x2030;" horiz-adv-x="963" 
d="M691 148q0 -75 35.5 -118.5t89.5 -43.5t89.5 43.5t35.5 118.5t-35.5 118.5t-89.5 43.5t-89.5 -43.5t-35.5 -118.5zM759 148q0 49 15.5 75.5t41.5 26.5t41.5 -26.5t15.5 -75.5t-15.5 -75.5t-41.5 -26.5t-41.5 26.5t-15.5 75.5zM22 453q0 -75 35.5 -118.5t89.5 -43.5
t89.5 43.5t35.5 118.5t-35.5 118.5t-89.5 43.5t-89.5 -43.5t-35.5 -118.5zM90 453q0 49 15.5 75.5t41.5 26.5t41.5 -26.5t15.5 -75.5t-15.5 -75.5t-41.5 -26.5t-41.5 26.5t-15.5 75.5zM376 148q0 -75 35.5 -118.5t89.5 -43.5t89.5 43.5t35.5 118.5t-35.5 118.5t-89.5 43.5
t-89.5 -43.5t-35.5 -118.5zM444 148q0 49 15.5 75.5t41.5 26.5t41.5 -26.5t15.5 -75.5t-15.5 -75.5t-41.5 -26.5t-41.5 26.5t-15.5 75.5zM104 -25h68l373 651h-68z" />
    <glyph glyph-name="Scaron" unicode="&#x160;" horiz-adv-x="500" 
d="M195 763h110l82 124h-98l-39 -59l-39 59h-98zM467 623q-39 54 -88.5 84.5t-114.5 30.5q-46 0 -87 -15.5t-71.5 -44t-47.5 -66.5t-17 -82q0 -51 16 -87t42 -59t54.5 -36.5t74.5 -30.5q35 -13 55.5 -22t38.5 -22.5t28.5 -32.5t10.5 -45q0 -47 -32 -81t-79 -34
q-40 0 -76.5 26.5t-66.5 73.5l-78 -77q82 -121 217 -121q48 0 89 17t71.5 47.5t47.5 70.5t17 85q0 50 -16 85t-43 58.5t-55.5 37.5t-74.5 32q-35 13 -55 22.5t-36 21.5q-40 29 -40 74q0 48 32 77.5t79 29.5q38 0 70.5 -23t64.5 -67z" />
    <glyph glyph-name="guilsinglleft" unicode="&#x2039;" horiz-adv-x="260" 
d="M156 64l70 40l-90 105l90 105l-70 40l-122 -145z" />
    <glyph glyph-name="OE" unicode="&#x152;" horiz-adv-x="1130" 
d="M695 0h373l42 98h-305v223h217v94h-217v207h270l-26 98h-354v-98q-56 54 -127 85t-151 31q-74 0 -144.5 -28t-125.5 -79.5t-86.5 -121t-31.5 -149.5t31.5 -149.5t87 -121t125.5 -79.5t144 -28q85 0 153.5 31t124.5 89v-102zM139 360q0 57 22 107.5t61 88.5t89.5 59
t105.5 21t105.5 -21t89.5 -58.5t61 -88.5t22 -108t-22 -107.5t-61 -88.5t-89.5 -59t-105.5 -21t-105.5 21t-89.5 59t-61 88.5t-22 107.5z" />
    <glyph glyph-name="quoteleft" unicode="&#x2018;" horiz-adv-x="240" 
d="M12 457h110l106 263h-90z" />
    <glyph glyph-name="quoteright" unicode="&#x2019;" horiz-adv-x="240" 
d="M12 457h90l126 263h-110z" />
    <glyph glyph-name="quotedblleft" unicode="&#x201c;" 
d="M187 457h110l106 263h-90zM4 457h110l106 263h-90z" />
    <glyph glyph-name="quotedblright" unicode="&#x201d;" 
d="M4 457h90l126 263h-110zM187 457h90l126 263h-110z" />
    <glyph glyph-name="bullet" unicode="&#x2022;" horiz-adv-x="500" 
d="M70 360q0 -37 14 -69.5t39 -57.5t57.5 -39t69.5 -14t69.5 14t57.5 39t39 57.5t14 69.5t-14 69.5t-39 57.5t-57.5 39t-69.5 14t-69.5 -14t-57.5 -39t-39 -57.5t-14 -69.5z" />
    <glyph glyph-name="endash" unicode="&#x2013;" horiz-adv-x="500" 
d="M0 167h500v84h-500v-84z" />
    <glyph glyph-name="emdash" unicode="&#x2014;" horiz-adv-x="1000" 
d="M0 167h1000v84h-1000v-84z" />
    <glyph glyph-name="tilde" unicode="&#x2dc;" horiz-adv-x="184" 
d="M-11 456q21 30 48 30q14 0 39 -13q17 -8 30.5 -12.5t31.5 -4.5q31 0 55 23.5t47 69.5l-47 21q-14 -30 -42 -30q-15 0 -46 13q-39 17 -63 17q-32 0 -57.5 -24.5t-40.5 -73.5z" />
    <glyph glyph-name="trademark" unicode="&#x2122;" horiz-adv-x="990" 
d="M182 308h84v344h124v68h-332v-68h124v-344zM854 308h78v412h-117l-112 -294l-112 294h-117v-412h78v328h2l121 -328h56l121 328h2v-328z" />
    <glyph glyph-name="scaron" unicode="&#x161;" horiz-adv-x="315" 
d="M103 446h110l82 124h-98l-39 -59l-39 59h-98zM284 317q-20 33 -53 55t-69 22q-56 0 -93 -37.5t-37 -90.5q0 -25 8.5 -43t22.5 -29.5t29 -18t39 -14.5q33 -12 48.5 -22t15.5 -31q0 -20 -12.5 -31t-31.5 -11q-20 0 -37.5 11.5t-30.5 28.5l-57 -66q49 -52 118 -52
q61 0 103 38.5t42 95.5q0 30 -9 50.5t-23.5 32t-29.5 17.5t-40 14q-32 9 -46.5 18t-14.5 29q0 16 11 24.5t28 8.5t32.5 -12.5t27.5 -40.5z" />
    <glyph glyph-name="guilsinglright" unicode="&#x203a;" horiz-adv-x="260" 
d="M124 209l-90 -105l70 -40l122 145l-122 145l-70 -40z" />
    <glyph glyph-name="oe" unicode="&#x153;" horiz-adv-x="722" 
d="M436 181q-4 9 -4 22q0 48 32.5 77.5t67.5 29.5q39 0 70 -21zM723 276q-32 60 -76.5 89t-108.5 29q-45 0 -80.5 -17t-72.5 -53q-34 35 -70.5 52.5t-83.5 17.5q-43 0 -80.5 -16.5t-65.5 -45t-43.5 -65.5t-15.5 -76t15.5 -75.5t44 -65.5t65.5 -45.5t80 -16.5q52 0 91.5 21.5
t68.5 56.5q22 -37 62 -57.5t92 -20.5q46 0 83.5 14t66.5 45l-36 85q-29 -32 -55 -46t-57 -14q-49 0 -80 39zM124 191q0 49 31 81t76 32q46 0 76.5 -32t30.5 -81t-30.5 -81t-76.5 -32q-45 0 -76 32t-31 81z" />
    <glyph glyph-name="Ydieresis" unicode="&#x178;" horiz-adv-x="519" 
d="M124 785h102v102h-102v-102zM294 785h102v102h-102v-102zM230 278l-119 -268l105 -28l320 712l-101 44l-150 -344l-209 344l-102 -44z" />
    <glyph glyph-name="exclamdown" unicode="&#xa1;" horiz-adv-x="260" 
d="M75 -169l110 8v570h-110v-578zM75 451h110v110h-110v-110z" />
    <glyph glyph-name="cent" unicode="&#xa2;" horiz-adv-x="520" 
d="M252 80q-33 11 -52 39t-19 73q0 84 71 112v-224zM252 -55h64v41q33 5 65 17t52 30l-39 80q-37 -34 -78 -37v234q38 -7 67 -36l47 73q-29 20 -56 32t-58 15v41h-64v-41q-70 -12 -117.5 -64.5t-47.5 -132.5q0 -85 45.5 -141.5t119.5 -69.5v-41z" />
    <glyph glyph-name="sterling" unicode="&#xa3;" horiz-adv-x="520" 
d="M57 0h405l24 110h-303l33 174h192v98h-174l26 138q11 61 41.5 90.5t70.5 29.5q49 0 98 -29l-9 110q-52 17 -104 17q-71 0 -125 -46.5t-71 -134.5l-33 -175h-75v-98h57z" />
    <glyph glyph-name="currency" unicode="&#xa4;" horiz-adv-x="520" 
d="M56 47l55 55q31 -24 69.5 -37t79.5 -13q84 0 149 51l55 -56l48 48l-55 55q51 67 51 150q0 42 -13 80.5t-38 69.5l55 55l-48 48l-55 -55q-66 50 -149 50q-41 0 -79.5 -13t-69.5 -37l-55 55l-48 -48l55 -55q-24 -31 -37.5 -69.5t-13.5 -80.5q0 -41 13.5 -79.5t37.5 -69.5
l-55 -56zM96 300q0 77 45.5 123.5t118.5 46.5t118.5 -46.5t45.5 -123.5t-45.5 -123.5t-118.5 -46.5t-118.5 46.5t-45.5 123.5z" />
    <glyph glyph-name="yen" unicode="&#xa5;" horiz-adv-x="520" 
d="M205 -4l110 8v146h173v68h-173v66h173v68h-143l186 342l-91 44l-180 -344l-179 344l-92 -44l178 -342h-135v-68h173v-66h-173v-68h173v-154z" />
    <glyph glyph-name="brokenbar" unicode="&#xa6;" horiz-adv-x="222" 
d="M69 -175h84v350h-84v-350zM69 325h84v350h-84v-350z" />
    <glyph glyph-name="section" unicode="&#xa7;" horiz-adv-x="481" 
d="M67 -58q39 -27 84 -43.5t80 -16.5q70 0 118 37.5t48 101.5q0 43 -30 76q39 40 55.5 66.5t16.5 63.5q0 29 -14 54.5t-36.5 47t-48 38.5t-60.5 39q-47 29 -69.5 47.5t-22.5 36.5q0 21 13 31t33 10q29 0 56.5 -10.5t59.5 -34.5l51 73q-80 56 -163 56q-66 0 -113 -38
q-22 -18 -34.5 -41.5t-12.5 -50.5q0 -28 9.5 -47t33.5 -37q-79 -52 -79 -121q0 -24 4 -39.5t16.5 -32t38.5 -37t71 -50.5q70 -46 94.5 -69.5t24.5 -40.5q0 -22 -15 -33.5t-40 -11.5t-56 14.5t-65 40.5zM224 323q39 -26 61.5 -43.5t34.5 -29.5t16.5 -21t4.5 -19
q0 -11 -9.5 -27.5t-28.5 -31.5l-87 61q-41 29 -54.5 45.5t-13.5 35.5q0 33 35 58z" />
    <glyph glyph-name="dieresis" unicode="&#xa8;" horiz-adv-x="184" 
d="M-44 468h102v102h-102v-102zM126 468h102v102h-102v-102z" />
    <glyph glyph-name="copyright" unicode="&#xa9;" horiz-adv-x="800" 
d="M512 292q-5 -42 -32.5 -64t-69.5 -22q-60 0 -95 43t-35 111q0 70 32.5 112t93.5 42q41 0 70 -22t36 -60h84q-12 74 -63 115t-122 41q-95 0 -152 -64.5t-57 -163.5q0 -48 15.5 -89.5t43.5 -72.5t67 -48.5t86 -17.5q69 0 119.5 43t62.5 117h-84zM22 360q0 -77 29 -146
t81.5 -121.5t121.5 -81.5t146 -29t146 29t121.5 81.5t81.5 121.5t29 146t-29 146t-81.5 121.5t-121.5 81.5t-146 29t-146 -29t-121.5 -81.5t-81.5 -121.5t-29 -146zM100 360q0 64 22.5 120t63.5 97.5t96 64t118 22.5t118 -22.5t96 -64t63.5 -97.5t22.5 -120t-22.5 -120
t-63.5 -97t-96 -64t-118 -23t-118 23t-96 64t-63.5 97t-22.5 120z" />
    <glyph glyph-name="ordfeminine" unicode="&#xaa;" horiz-adv-x="253" 
d="M165 516q-20 17 -56 17q-41 0 -68 -21.5t-27 -56.5q0 -39 23.5 -61t69.5 -22q21 0 37 7.5t22 21.5h2v-23l71 8v171q0 32 -24.5 45t-82.5 13q-20 0 -59 -3q-3 -1 -8 -1l-18 -59q11 1 24 3q31 4 48 4q25 0 35.5 -6t10.5 -18v-19zM88 455q0 28 40 28q16 0 26.5 -7.5
t10.5 -20.5q0 -12 -10.5 -19.5t-26.5 -7.5q-40 0 -40 27z" />
    <glyph glyph-name="guillemotleft" unicode="&#xab;" 
d="M306 64l70 40l-90 105l90 105l-70 40l-122 -145zM153 64l70 40l-90 105l90 105l-70 40l-122 -145z" />
    <glyph glyph-name="logicalnot" unicode="&#xac;" horiz-adv-x="600" 
d="M469 107h84v292h-506v-84h422v-208z" />
    <glyph glyph-name="minus" unicode="&#xad;" horiz-adv-x="600" 
d="M47 211h506v84h-506v-84z" />
    <glyph glyph-name="minus" unicode="&#x2212;" horiz-adv-x="600" 
d="M47 211h506v84h-506v-84z" />
    <glyph glyph-name="registered" unicode="&#xae;" horiz-adv-x="800" 
d="M22 360q0 -77 29.5 -146t81.5 -121.5t121 -81.5t146 -29t146 29t121.5 81.5t81.5 121.5t29 146t-29 146t-81.5 121.5t-121.5 81.5t-146 29t-145.5 -29t-121 -81.5t-82 -121.5t-29.5 -146zM100 360q0 64 22.5 120t63.5 97.5t96 64t118 22.5t118 -22.5t96 -64t63.5 -97.5
t22.5 -120t-22.5 -120t-63.5 -97t-96 -64t-118 -23t-118 23t-96 64t-63.5 97t-22.5 120zM502 144h84l-116 194q48 3 78.5 31t30.5 83q0 64 -40.5 93.5t-121.5 29.5h-168v-431h74v187h66zM323 391v124h82q42 0 69 -12t27 -46q0 -41 -25.5 -53.5t-76.5 -12.5h-76z" />
    <glyph glyph-name="macron" unicode="&#xaf;" horiz-adv-x="184" 
d="M-29 468h242v78h-242v-78z" />
    <glyph glyph-name="degree" unicode="&#xb0;" horiz-adv-x="400" 
d="M51 466q0 -30 11.5 -57.5t32 -48t48 -32t57.5 -11.5t57.5 11.5t48 32t32 48t11.5 57.5t-11.5 57.5t-32 48t-48 32t-57.5 11.5t-57.5 -11.5t-48 -32t-32 -48t-11.5 -57.5zM111 466q0 37 26 63t63 26t63 -26t26 -63t-26 -63t-63 -26t-63 26t-26 63z" />
    <glyph glyph-name="plusminus" unicode="&#xb1;" horiz-adv-x="600" 
d="M258 354h-211v-84h211v-152h84v152h211v84h-211v152h-84v-152zM47 0h506v84h-506v-84z" />
    <glyph glyph-name="twosuperior" unicode="&#xb2;" horiz-adv-x="337" 
d="M166 452q-29 7 -44 21t-15 31q0 19 17 31t42 12t42 -12.5t17 -32.5q0 -33 -28 -65l-159 -191h250l20 68h-134l59 59q38 38 54 70.5t16 61.5q0 48 -37 79t-95 31q-64 0 -103 -32t-39 -78q0 -36 23.5 -59.5t65.5 -36.5z" />
    <glyph glyph-name="threesuperior" unicode="&#xb3;" horiz-adv-x="337" 
d="M80 512q10 17 27 26t36 9q23 0 40 -12t17 -32q0 -19 -17 -30.5t-50 -11.5h-28v-60h31q30 0 47 -13.5t17 -33.5q0 -19 -16.5 -33.5t-41.5 -14.5q-37 0 -71 37l-42 -50q21 -26 52 -40.5t70 -14.5q59 0 96 31t37 78q0 29 -18 50t-55 32v2q35 11 51 31.5t16 49.5
q0 46 -36 74.5t-90 28.5q-37 0 -68 -15t-53 -46z" />
    <glyph glyph-name="acute" unicode="&#xb4;" horiz-adv-x="184" 
d="M36 446h74l108 124h-124z" />
    <glyph glyph-name="mu" unicode="&#xb5;" 
d="M43 -165l98 8v153q13 -8 26 -8q31 0 55.5 13t41.5 44h2v-49l98 8v382l-98 -8v-205q0 -38 -17.5 -62.5t-45.5 -24.5q-62 0 -62 79v221l-98 -8v-543z" />
    <glyph glyph-name="paragraph" unicode="&#xb6;" horiz-adv-x="600" 
d="M377 -104l68 8v647h26l22 50h-235q-87 0 -136 -36.5t-49 -113.5q0 -63 47 -104t123 -41v-410l68 8v647h66v-655z" />
    <glyph glyph-name="periodcentered" unicode="&#xb7;" horiz-adv-x="260" 
d="M59 297q0 -29 21 -50t50 -21t50 21t21 50t-21 50t-50 21t-50 -21t-21 -50z" />
    <glyph glyph-name="periodcentered" unicode="&#x2219;" horiz-adv-x="260" 
d="M59 297q0 -29 21 -50t50 -21t50 21t21 50t-21 50t-50 21t-50 -21t-21 -50z" />
    <glyph glyph-name="cedilla" unicode="&#xb8;" horiz-adv-x="184" 
d="M104 -180q21 28 30.5 61t9.5 61v20q-32 -6 -49 -6t-49 6q8 -24 8 -49q0 -36 -34 -93h84z" />
    <glyph glyph-name="onesuperior" unicode="&#xb9;" horiz-adv-x="337" 
d="M147 242l78 8v369q-29 -17 -86 -49q-62 -34 -92 -52l29 -57l71 38v-257z" />
    <glyph glyph-name="ordmasculine" unicode="&#xba;" horiz-adv-x="337" 
d="M99 494q0 25 20 43t49 18q30 0 50 -18t20 -43q0 -26 -20 -44t-50 -18q-29 0 -49 18t-20 44zM25 494q0 -49 40.5 -85.5t102.5 -36.5q63 0 103.5 36t40.5 86q0 49 -40.5 85t-103.5 36q-62 0 -102.5 -36t-40.5 -85z" />
    <glyph glyph-name="guillemotright" unicode="&#xbb;" 
d="M31 104l70 -40l122 145l-122 145l-70 -40l90 -105zM184 104l70 -40l122 145l-122 145l-70 -40l90 -105z" />
    <glyph glyph-name="onequarter" unicode="&#xbc;" horiz-adv-x="778" 
d="M712 146h-48v219h-68l-199 -287h193v-82l74 8v74h48v68zM517 146l71 105h2v-105h-73zM149 -25h68l373 651h-68zM147 242l78 8v369q-29 -17 -86 -49q-62 -34 -92 -52l29 -57l71 38v-257z" />
    <glyph glyph-name="onehalf" unicode="&#xbd;" horiz-adv-x="778" 
d="M131 -25h68l373 651h-68zM147 242l78 8v369q-29 -17 -86 -49q-62 -34 -92 -52l29 -57l71 38v-257zM589 206q-29 7 -44 21t-15 31q0 19 17 31t42 12t42 -12.5t17 -32.5q0 -33 -28 -65l-159 -191h250l20 68h-134l59 59q38 38 54 70.5t16 61.5q0 48 -37 79t-95 31
q-64 0 -103 -32t-39 -78q0 -36 23.5 -59.5t65.5 -36.5z" />
    <glyph glyph-name="threequarters" unicode="&#xbe;" horiz-adv-x="778" 
d="M712 146h-48v219h-68l-199 -287h193v-82l74 8v74h48v68zM517 146l71 105h2v-105h-73zM149 -25h68l373 651h-68zM80 512q10 17 27 26t36 9q23 0 40 -12t17 -32q0 -19 -17 -30.5t-50 -11.5h-28v-60h31q30 0 47 -13.5t17 -33.5q0 -19 -16.5 -33.5t-41.5 -14.5q-37 0 -71 37
l-42 -50q21 -26 52 -40.5t70 -14.5q59 0 96 31t37 78q0 29 -18 50t-55 32v2q35 11 51 31.5t16 49.5q0 46 -36 74.5t-90 28.5q-37 0 -68 -15t-53 -46z" />
    <glyph glyph-name="questiondown" unicode="&#xbf;" horiz-adv-x="520" 
d="M222 330q0 -27 -9.5 -47.5t-36.5 -51.5q-42 -48 -66.5 -97t-24.5 -92q0 -98 55 -154.5t140 -56.5q81 0 132 49t67 144l-90 34q-9 -67 -34.5 -98t-69.5 -31q-39 0 -66.5 29.5t-27.5 78.5q0 37 19.5 70.5t75.5 95.5q17 19 25.5 30t13 22.5t6 25.5t1.5 39v89h-110v-79z
M222 451h110v110h-110v-110z" />
    <glyph glyph-name="Agrave" unicode="&#xc0;" horiz-adv-x="741" 
d="M353 763h74l-58 124h-124zM282 359l98 177l86 -177h-184zM80 -18l154 287h272l146 -287l109 22l-381 734l-400 -723z" />
    <glyph glyph-name="Aacute" unicode="&#xc1;" horiz-adv-x="741" 
d="M315 763h74l108 124h-124zM282 359l98 177l86 -177h-184zM80 -18l154 287h272l146 -287l109 22l-381 734l-400 -723z" />
    <glyph glyph-name="Acircumflex" unicode="&#xc2;" horiz-adv-x="741" 
d="M234 763h98l39 59l39 -59h98l-82 124h-110zM282 359l98 177l86 -177h-184zM80 -18l154 287h272l146 -287l109 22l-381 734l-400 -723z" />
    <glyph glyph-name="Atilde" unicode="&#xc3;" horiz-adv-x="741" 
d="M268 773q21 30 48 30q14 0 39 -13q17 -8 30.5 -12.5t31.5 -4.5q31 0 55 23.5t47 69.5l-47 21q-14 -30 -42 -30q-15 0 -46 13q-39 17 -63 17q-32 0 -57.5 -24.5t-40.5 -73.5zM282 359l98 177l86 -177h-184zM80 -18l154 287h272l146 -287l109 22l-381 734l-400 -723z" />
    <glyph glyph-name="Adieresis" unicode="&#xc4;" horiz-adv-x="741" 
d="M235 785h102v102h-102v-102zM405 785h102v102h-102v-102zM282 359l98 177l86 -177h-184zM80 -18l154 287h272l146 -287l109 22l-381 734l-400 -723z" />
    <glyph glyph-name="Aring" unicode="&#xc5;" horiz-adv-x="741" 
d="M278 839q0 -38 27.5 -65.5t65.5 -27.5t65.5 27.5t27.5 65.5t-27.5 65.5t-65.5 27.5t-65.5 -27.5t-27.5 -65.5zM328 839q0 18 12.5 30.5t30.5 12.5t30.5 -12.5t12.5 -30.5t-12.5 -30.5t-30.5 -12.5t-30.5 12.5t-12.5 30.5zM282 359l98 177l86 -177h-184zM80 -18l154 287
h272l146 -287l109 22l-381 734l-400 -723z" />
    <glyph glyph-name="AE" unicode="&#xc6;" horiz-adv-x="926" 
d="M-20 28l97 -46l190 293h234v-275h373l42 98h-305v223h217v94h-217v207h270l-26 98h-423zM501 369h-177l175 267h2v-267z" />
    <glyph glyph-name="Ccedilla" unicode="&#xc7;" horiz-adv-x="537" 
d="M404 -180q21 28 30.5 61t9.5 61v20q-32 -6 -49 -6t-49 6q8 -24 8 -49q0 -36 -34 -93h84zM505 724q-18 7 -45 10.5t-56 3.5q-83 0 -153 -28.5t-119.5 -80.5t-76 -121.5t-26.5 -149.5q0 -78 26 -147t76.5 -120.5t124 -80t164.5 -28.5q48 0 85 5l20 110q-50 -13 -93 -13
q-62 0 -116 21t-93.5 59t-61.5 89t-22 109q0 65 24 116.5t64.5 87t89.5 53t98 17.5q62 0 110 -24z" />
    <glyph glyph-name="Egrave" unicode="&#xc8;" horiz-adv-x="463" 
d="M214 763h74l-58 124h-124zM56 0h373l42 98h-305v223h217v94h-217v207h270l-26 98h-354v-720z" />
    <glyph glyph-name="Eacute" unicode="&#xc9;" horiz-adv-x="463" 
d="M176 763h74l108 124h-124zM56 0h373l42 98h-305v223h217v94h-217v207h270l-26 98h-354v-720z" />
    <glyph glyph-name="Ecircumflex" unicode="&#xca;" horiz-adv-x="463" 
d="M95 763h98l39 59l39 -59h98l-82 124h-110zM56 0h373l42 98h-305v223h217v94h-217v207h270l-26 98h-354v-720z" />
    <glyph glyph-name="Edieresis" unicode="&#xcb;" horiz-adv-x="463" 
d="M96 785h102v102h-102v-102zM266 785h102v102h-102v-102zM56 0h373l42 98h-305v223h217v94h-217v207h270l-26 98h-354v-720z" />
    <glyph glyph-name="Igrave" unicode="&#xcc;" horiz-adv-x="222" 
d="M93 763h74l-58 124h-124zM56 -4l110 8v720l-110 -8v-720z" />
    <glyph glyph-name="Iacute" unicode="&#xcd;" horiz-adv-x="222" 
d="M55 763h74l108 124h-124zM56 -4l110 8v720l-110 -8v-720z" />
    <glyph glyph-name="Icircumflex" unicode="&#xce;" horiz-adv-x="222" 
d="M-26 763h98l39 59l39 -59h98l-82 124h-110zM56 -4l110 8v720l-110 -8v-720z" />
    <glyph glyph-name="Idieresis" unicode="&#xcf;" horiz-adv-x="222" 
d="M-25 785h102v102h-102v-102zM145 785h102v102h-102v-102zM56 -4l110 8v720l-110 -8v-720z" />
    <glyph glyph-name="Eth" unicode="&#xd0;" horiz-adv-x="667" 
d="M56 0h201q72 0 138 26t117.5 74t80.5 114.5t29 145.5t-29 145.5t-80 114.5t-117.5 74t-138.5 26h-201v-326h-66v-68h66v-326zM166 394v228h103q51 0 95.5 -20t77.5 -56t51.5 -85t18.5 -106q0 -122 -76.5 -193.5t-206.5 -71.5h-63v236h150v68h-150z" />
    <glyph glyph-name="Ntilde" unicode="&#xd1;" horiz-adv-x="704" 
d="M249 773q21 30 48 30q14 0 39 -13q17 -8 30.5 -12.5t31.5 -4.5q31 0 55 23.5t47 69.5l-47 21q-14 -30 -42 -30q-15 0 -46 13q-39 17 -63 17q-32 0 -57.5 -24.5t-40.5 -73.5zM167 472l476 -499v751l-106 -8v-469l-476 491v-742l106 8v468z" />
    <glyph glyph-name="Ograve" unicode="&#xd2;" horiz-adv-x="834" 
d="M399 763h74l-58 124h-124zM29 360q0 -80 31.5 -149.5t87 -121t125.5 -79.5t144 -28t144.5 28t125.5 79.5t86.5 121t31.5 149.5t-31.5 149.5t-87 121t-125.5 79.5t-144 28t-144.5 -28t-125.5 -79.5t-86.5 -121t-31.5 -149.5zM139 360q0 57 22 107.5t61 88.5t89.5 59
t105.5 21t105.5 -21t89.5 -58.5t61 -88.5t22 -108t-22 -107.5t-61 -88.5t-89.5 -59t-105.5 -21t-105.5 21t-89.5 59t-61 88.5t-22 107.5z" />
    <glyph glyph-name="Oacute" unicode="&#xd3;" horiz-adv-x="834" 
d="M361 763h74l108 124h-124zM29 360q0 -80 31.5 -149.5t87 -121t125.5 -79.5t144 -28t144.5 28t125.5 79.5t86.5 121t31.5 149.5t-31.5 149.5t-87 121t-125.5 79.5t-144 28t-144.5 -28t-125.5 -79.5t-86.5 -121t-31.5 -149.5zM139 360q0 57 22 107.5t61 88.5t89.5 59
t105.5 21t105.5 -21t89.5 -58.5t61 -88.5t22 -108t-22 -107.5t-61 -88.5t-89.5 -59t-105.5 -21t-105.5 21t-89.5 59t-61 88.5t-22 107.5z" />
    <glyph glyph-name="Ocircumflex" unicode="&#xd4;" horiz-adv-x="834" 
d="M280 763h98l39 59l39 -59h98l-82 124h-110zM29 360q0 -80 31.5 -149.5t87 -121t125.5 -79.5t144 -28t144.5 28t125.5 79.5t86.5 121t31.5 149.5t-31.5 149.5t-87 121t-125.5 79.5t-144 28t-144.5 -28t-125.5 -79.5t-86.5 -121t-31.5 -149.5zM139 360q0 57 22 107.5
t61 88.5t89.5 59t105.5 21t105.5 -21t89.5 -58.5t61 -88.5t22 -108t-22 -107.5t-61 -88.5t-89.5 -59t-105.5 -21t-105.5 21t-89.5 59t-61 88.5t-22 107.5z" />
    <glyph glyph-name="Otilde" unicode="&#xd5;" horiz-adv-x="834" 
d="M314 773q21 30 48 30q14 0 39 -13q17 -8 30.5 -12.5t31.5 -4.5q31 0 55 23.5t47 69.5l-47 21q-14 -30 -42 -30q-15 0 -46 13q-39 17 -63 17q-32 0 -57.5 -24.5t-40.5 -73.5zM29 360q0 -80 31.5 -149.5t87 -121t125.5 -79.5t144 -28t144.5 28t125.5 79.5t86.5 121
t31.5 149.5t-31.5 149.5t-87 121t-125.5 79.5t-144 28t-144.5 -28t-125.5 -79.5t-86.5 -121t-31.5 -149.5zM139 360q0 57 22 107.5t61 88.5t89.5 59t105.5 21t105.5 -21t89.5 -58.5t61 -88.5t22 -108t-22 -107.5t-61 -88.5t-89.5 -59t-105.5 -21t-105.5 21t-89.5 59
t-61 88.5t-22 107.5z" />
    <glyph glyph-name="Odieresis" unicode="&#xd6;" horiz-adv-x="834" 
d="M281 785h102v102h-102v-102zM451 785h102v102h-102v-102zM29 360q0 -80 31.5 -149.5t87 -121t125.5 -79.5t144 -28t144.5 28t125.5 79.5t86.5 121t31.5 149.5t-31.5 149.5t-87 121t-125.5 79.5t-144 28t-144.5 -28t-125.5 -79.5t-86.5 -121t-31.5 -149.5zM139 360
q0 57 22 107.5t61 88.5t89.5 59t105.5 21t105.5 -21t89.5 -58.5t61 -88.5t22 -108t-22 -107.5t-61 -88.5t-89.5 -59t-105.5 -21t-105.5 21t-89.5 59t-61 88.5t-22 107.5z" />
    <glyph glyph-name="multiply" unicode="&#xd7;" horiz-adv-x="600" 
d="M245 253l-175 -174l56 -56l174 175l174 -175l56 56l-175 174l175 174l-56 56l-174 -175l-174 175l-56 -56z" />
    <glyph glyph-name="Oslash" unicode="&#xd8;" horiz-adv-x="834" 
d="M187 206q-48 70 -48 154q0 57 22 107.5t61 88.5t89.5 59t105.5 21q46 0 89.5 -15t81.5 -44zM647 514q48 -70 48 -154q0 -57 -22 -107.5t-61 -88.5t-89.5 -59t-105.5 -21q-46 0 -89.5 15.5t-80.5 43.5zM87 -4l82 75q51 -42 115.5 -65.5t132.5 -23.5q74 0 144.5 28
t125.5 79.5t86.5 121t31.5 149.5q0 65 -20.5 122.5t-58.5 104.5l79 73l-58 64l-81 -75q-52 42 -116.5 65.5t-132.5 23.5q-74 0 -144.5 -28t-125.5 -79.5t-86.5 -121t-31.5 -149.5q0 -64 20.5 -122t58.5 -105l-79 -73z" />
    <glyph glyph-name="Ugrave" unicode="&#xd9;" horiz-adv-x="630" 
d="M297 763h74l-58 124h-124zM464 266q0 -51 -11.5 -87t-32 -58t-47 -31.5t-58.5 -9.5t-58.5 9.5t-47 31.5t-32 58t-11.5 87v458l-110 -8v-480q0 -67 22 -116t59 -79.5t83 -44.5t95 -14t95 14t83 44.5t59 79.5t22 116v488l-110 -8v-450z" />
    <glyph glyph-name="Uacute" unicode="&#xda;" horiz-adv-x="630" 
d="M259 763h74l108 124h-124zM464 266q0 -51 -11.5 -87t-32 -58t-47 -31.5t-58.5 -9.5t-58.5 9.5t-47 31.5t-32 58t-11.5 87v458l-110 -8v-480q0 -67 22 -116t59 -79.5t83 -44.5t95 -14t95 14t83 44.5t59 79.5t22 116v488l-110 -8v-450z" />
    <glyph glyph-name="Ucircumflex" unicode="&#xdb;" horiz-adv-x="630" 
d="M178 763h98l39 59l39 -59h98l-82 124h-110zM464 266q0 -51 -11.5 -87t-32 -58t-47 -31.5t-58.5 -9.5t-58.5 9.5t-47 31.5t-32 58t-11.5 87v458l-110 -8v-480q0 -67 22 -116t59 -79.5t83 -44.5t95 -14t95 14t83 44.5t59 79.5t22 116v488l-110 -8v-450z" />
    <glyph glyph-name="Udieresis" unicode="&#xdc;" horiz-adv-x="630" 
d="M179 785h102v102h-102v-102zM349 785h102v102h-102v-102zM464 266q0 -51 -11.5 -87t-32 -58t-47 -31.5t-58.5 -9.5t-58.5 9.5t-47 31.5t-32 58t-11.5 87v458l-110 -8v-480q0 -67 22 -116t59 -79.5t83 -44.5t95 -14t95 14t83 44.5t59 79.5t22 116v488l-110 -8v-450z" />
    <glyph glyph-name="Yacute" unicode="&#xdd;" horiz-adv-x="519" 
d="M204 763h74l108 124h-124zM230 278l-119 -268l105 -28l320 712l-101 44l-150 -344l-209 344l-102 -44z" />
    <glyph glyph-name="Thorn" unicode="&#xde;" horiz-adv-x="519" 
d="M56 -4l110 8v143q24 -3 55 -3q141 0 213.5 63t72.5 162q0 95 -68 151t-177 56h-96v148l-110 -8v-720zM255 486q66 0 104 -34.5t38 -88.5q0 -59 -41.5 -92t-113.5 -33q-49 0 -76 7v241h89z" />
    <glyph glyph-name="germandbls" unicode="&#xdf;" horiz-adv-x="519" 
d="M43 -4l98 8v508q0 68 27 100t77 32q49 0 78.5 -31.5t29.5 -82.5q0 -54 -36 -87.5t-96 -33.5q-19 0 -28 4v-90q28 2 42 2q70 0 108.5 -34.5t38.5 -93.5q0 -54 -33 -86.5t-85 -32.5q-43 0 -71 20v-94q21 -7 47 -11.5t52 -4.5q37 0 72.5 16t63 44t44 66t16.5 80
q0 66 -37.5 116t-107.5 59v2q46 20 77 61t31 103q0 45 -16.5 82.5t-45.5 64.5t-67 41.5t-81 14.5q-87 0 -142.5 -51t-55.5 -145v-546z" />
    <glyph glyph-name="agrave" unicode="&#xe0;" horiz-adv-x="389" 
d="M177 446h74l-58 124h-124zM246 229q-34 35 -90 35q-53 0 -91.5 -37.5t-38.5 -99.5q0 -64 34 -101.5t93 -37.5q36 0 61 12t34 37h2v-41l90 8v285q0 53 -35 75t-115 22q-34 0 -87 -7l-27 -90q7 1 19 4q52 9 75 9q43 0 59.5 -10.5t16.5 -33.5v-29zM124 126q0 22 16.5 35
t44.5 13t44.5 -13t16.5 -35q0 -54 -61 -54t-61 54z" />
    <glyph glyph-name="aacute" unicode="&#xe1;" horiz-adv-x="389" 
d="M139 446h74l108 124h-124zM246 229q-34 35 -90 35q-53 0 -91.5 -37.5t-38.5 -99.5q0 -64 34 -101.5t93 -37.5q36 0 61 12t34 37h2v-41l90 8v285q0 53 -35 75t-115 22q-34 0 -87 -7l-27 -90q7 1 19 4q52 9 75 9q43 0 59.5 -10.5t16.5 -33.5v-29zM124 126q0 22 16.5 35
t44.5 13t44.5 -13t16.5 -35q0 -54 -61 -54t-61 54z" />
    <glyph glyph-name="acircumflex" unicode="&#xe2;" horiz-adv-x="389" 
d="M58 446h98l39 59l39 -59h98l-82 124h-110zM246 229q-34 35 -90 35q-53 0 -91.5 -37.5t-38.5 -99.5q0 -64 34 -101.5t93 -37.5q36 0 61 12t34 37h2v-41l90 8v285q0 53 -35 75t-115 22q-34 0 -87 -7l-27 -90q7 1 19 4q52 9 75 9q43 0 59.5 -10.5t16.5 -33.5v-29zM124 126
q0 22 16.5 35t44.5 13t44.5 -13t16.5 -35q0 -54 -61 -54t-61 54z" />
    <glyph glyph-name="atilde" unicode="&#xe3;" horiz-adv-x="389" 
d="M92 456q21 30 48 30q14 0 39 -13q17 -8 30.5 -12.5t31.5 -4.5q31 0 55 23.5t47 69.5l-47 21q-14 -30 -42 -30q-15 0 -46 13q-39 17 -63 17q-32 0 -57.5 -24.5t-40.5 -73.5zM246 229q-34 35 -90 35q-53 0 -91.5 -37.5t-38.5 -99.5q0 -64 34 -101.5t93 -37.5q36 0 61 12
t34 37h2v-41l90 8v285q0 53 -35 75t-115 22q-34 0 -87 -7l-27 -90q7 1 19 4q52 9 75 9q43 0 59.5 -10.5t16.5 -33.5v-29zM124 126q0 22 16.5 35t44.5 13t44.5 -13t16.5 -35q0 -54 -61 -54t-61 54z" />
    <glyph glyph-name="adieresis" unicode="&#xe4;" horiz-adv-x="389" 
d="M59 468h102v102h-102v-102zM229 468h102v102h-102v-102zM246 229q-34 35 -90 35q-53 0 -91.5 -37.5t-38.5 -99.5q0 -64 34 -101.5t93 -37.5q36 0 61 12t34 37h2v-41l90 8v285q0 53 -35 75t-115 22q-34 0 -87 -7l-27 -90q7 1 19 4q52 9 75 9q43 0 59.5 -10.5t16.5 -33.5
v-29zM124 126q0 22 16.5 35t44.5 13t44.5 -13t16.5 -35q0 -54 -61 -54t-61 54z" />
    <glyph glyph-name="aring" unicode="&#xe5;" horiz-adv-x="389" 
d="M102 522q0 -38 27.5 -65.5t65.5 -27.5t65.5 27.5t27.5 65.5t-27.5 65.5t-65.5 27.5t-65.5 -27.5t-27.5 -65.5zM152 522q0 18 12.5 30.5t30.5 12.5t30.5 -12.5t12.5 -30.5t-12.5 -30.5t-30.5 -12.5t-30.5 12.5t-12.5 30.5zM246 229q-34 35 -90 35q-53 0 -91.5 -37.5
t-38.5 -99.5q0 -64 34 -101.5t93 -37.5q36 0 61 12t34 37h2v-41l90 8v285q0 53 -35 75t-115 22q-34 0 -87 -7l-27 -90q7 1 19 4q52 9 75 9q43 0 59.5 -10.5t16.5 -33.5v-29zM124 126q0 22 16.5 35t44.5 13t44.5 -13t16.5 -35q0 -54 -61 -54t-61 54z" />
    <glyph glyph-name="ae" unicode="&#xe6;" horiz-adv-x="611" 
d="M327 181q-4 9 -4 22q0 47 32.5 77t64.5 30q39 0 70 -21zM63 289q7 1 19 4q52 9 75 9q43 0 59.5 -11t16.5 -33v-29q-34 35 -90 35q-53 0 -91.5 -37.5t-38.5 -99.5q0 -64 34 -101.5t93 -37.5q34 0 58.5 12.5t32.5 36.5h2v-41l84 8v32q53 -48 117 -48q46 0 83.5 14t66.5 45
l-36 85q-29 -32 -55 -46t-57 -14q-49 0 -80 39l256 165q-32 60 -76.5 89t-108.5 29q-34 0 -68.5 -12.5t-57.5 -34.5q-23 20 -51 29.5t-73 9.5q-34 0 -87 -7zM111 126q0 22 16.5 35t44.5 13t44.5 -13t16.5 -35q0 -54 -61 -54t-61 54z" />
    <glyph glyph-name="ccedilla" unicode="&#xe7;" horiz-adv-x="389" 
d="M224 -180q21 28 30.5 61t9.5 61v20q-32 -6 -49 -6t-49 6q8 -24 8 -49q0 -36 -34 -93h84zM369 347q-38 23 -71 35t-75 12q-37 0 -72.5 -13.5t-63.5 -39.5t-44.5 -62.5t-16.5 -80.5q0 -96 57.5 -153t146.5 -57q33 0 75 12.5t67 34.5l-39 84q-24 -22 -47.5 -31.5t-54.5 -9.5
q-46 0 -76.5 30t-30.5 85q0 50 31.5 80.5t84.5 30.5q45 0 82 -34z" />
    <glyph glyph-name="egrave" unicode="&#xe8;" 
d="M186 446h74l-58 124h-124zM408 276q-32 60 -76.5 89t-108.5 29q-37 0 -72.5 -13.5t-63.5 -39.5t-44.5 -62.5t-16.5 -80.5q0 -96 57.5 -153t146.5 -57q46 0 83.5 14t66.5 45l-36 85q-29 -32 -55 -46t-57 -14q-49 0 -80 39zM124 181q-4 9 -4 22q0 47 32.5 77t64.5 30
q39 0 70 -21z" />
    <glyph glyph-name="eacute" unicode="&#xe9;" 
d="M148 446h74l108 124h-124zM408 276q-32 60 -76.5 89t-108.5 29q-37 0 -72.5 -13.5t-63.5 -39.5t-44.5 -62.5t-16.5 -80.5q0 -96 57.5 -153t146.5 -57q46 0 83.5 14t66.5 45l-36 85q-29 -32 -55 -46t-57 -14q-49 0 -80 39zM124 181q-4 9 -4 22q0 47 32.5 77t64.5 30
q39 0 70 -21z" />
    <glyph glyph-name="ecircumflex" unicode="&#xea;" 
d="M67 446h98l39 59l39 -59h98l-82 124h-110zM408 276q-32 60 -76.5 89t-108.5 29q-37 0 -72.5 -13.5t-63.5 -39.5t-44.5 -62.5t-16.5 -80.5q0 -96 57.5 -153t146.5 -57q46 0 83.5 14t66.5 45l-36 85q-29 -32 -55 -46t-57 -14q-49 0 -80 39zM124 181q-4 9 -4 22
q0 47 32.5 77t64.5 30q39 0 70 -21z" />
    <glyph glyph-name="edieresis" unicode="&#xeb;" 
d="M68 468h102v102h-102v-102zM238 468h102v102h-102v-102zM408 276q-32 60 -76.5 89t-108.5 29q-37 0 -72.5 -13.5t-63.5 -39.5t-44.5 -62.5t-16.5 -80.5q0 -96 57.5 -153t146.5 -57q46 0 83.5 14t66.5 45l-36 85q-29 -32 -55 -46t-57 -14q-49 0 -80 39zM124 181
q-4 9 -4 22q0 47 32.5 77t64.5 30q39 0 70 -21z" />
    <glyph glyph-name="igrave" unicode="&#xec;" horiz-adv-x="184" 
d="M74 446h74l-58 124h-124zM43 -4l98 8v382l-98 -8v-382z" />
    <glyph glyph-name="iacute" unicode="&#xed;" horiz-adv-x="184" 
d="M36 446h74l108 124h-124zM43 -4l98 8v382l-98 -8v-382z" />
    <glyph glyph-name="icircumflex" unicode="&#xee;" horiz-adv-x="184" 
d="M-45 446h98l39 59l39 -59h98l-82 124h-110zM43 -4l98 8v382l-98 -8v-382z" />
    <glyph glyph-name="idieresis" unicode="&#xef;" horiz-adv-x="184" 
d="M-44 468h102v102h-102v-102zM126 468h102v102h-102v-102zM43 -4l98 8v382l-98 -8v-382z" />
    <glyph glyph-name="eth" unicode="&#xf0;" horiz-adv-x="462" 
d="M124 191q0 49 31 81t76 32q46 0 76.5 -32t30.5 -81t-30.5 -81t-76.5 -32q-45 0 -76 32t-31 81zM90 528l49 -55l111 51q30 -41 49.5 -83t27.5 -79l-2 -2q-17 19 -44 26.5t-50 7.5q-43 0 -80.5 -16.5t-65.5 -45t-43.5 -65.5t-15.5 -76t15.5 -75.5t44 -65.5t65.5 -45.5
t80 -16.5q87 0 143 58q30 30 46 76t16 106q0 81 -25.5 169t-79.5 164l105 49l-49 55l-104 -48q-58 63 -141 103l-67 -49q74 -36 127 -91z" />
    <glyph glyph-name="ntilde" unicode="&#xf1;" 
d="M101 456q21 30 48 30q14 0 39 -13q17 -8 30.5 -12.5t31.5 -4.5q31 0 55 23.5t47 69.5l-47 21q-14 -30 -42 -30q-15 0 -46 13q-39 17 -63 17q-32 0 -57.5 -24.5t-40.5 -73.5zM43 -4l98 8v205q0 39 17.5 63t45.5 24q62 0 62 -79v-221l98 8v273q0 53 -35.5 85t-88.5 32
q-31 0 -55.5 -13t-41.5 -44h-2v49l-98 -8v-382z" />
    <glyph glyph-name="ograve" unicode="&#xf2;" horiz-adv-x="462" 
d="M213 446h74l-58 124h-124zM231 78q-45 0 -76 32t-31 81t31 81t76 32q46 0 76.5 -32t30.5 -81t-30.5 -81t-76.5 -32zM26 191q0 -39 15.5 -75.5t44 -65.5t65.5 -45.5t80 -16.5t80.5 16.5t65.5 45t43.5 65.5t15.5 76t-15.5 76t-43.5 65.5t-65.5 45t-80.5 16.5t-80.5 -16.5
t-65.5 -45t-43.5 -65.5t-15.5 -76z" />
    <glyph glyph-name="oacute" unicode="&#xf3;" horiz-adv-x="462" 
d="M175 446h74l108 124h-124zM231 78q-45 0 -76 32t-31 81t31 81t76 32q46 0 76.5 -32t30.5 -81t-30.5 -81t-76.5 -32zM26 191q0 -39 15.5 -75.5t44 -65.5t65.5 -45.5t80 -16.5t80.5 16.5t65.5 45t43.5 65.5t15.5 76t-15.5 76t-43.5 65.5t-65.5 45t-80.5 16.5t-80.5 -16.5
t-65.5 -45t-43.5 -65.5t-15.5 -76z" />
    <glyph glyph-name="ocircumflex" unicode="&#xf4;" horiz-adv-x="462" 
d="M94 446h98l39 59l39 -59h98l-82 124h-110zM231 78q-45 0 -76 32t-31 81t31 81t76 32q46 0 76.5 -32t30.5 -81t-30.5 -81t-76.5 -32zM26 191q0 -39 15.5 -75.5t44 -65.5t65.5 -45.5t80 -16.5t80.5 16.5t65.5 45t43.5 65.5t15.5 76t-15.5 76t-43.5 65.5t-65.5 45
t-80.5 16.5t-80.5 -16.5t-65.5 -45t-43.5 -65.5t-15.5 -76z" />
    <glyph glyph-name="otilde" unicode="&#xf5;" horiz-adv-x="462" 
d="M128 456q21 30 48 30q14 0 39 -13q17 -8 30.5 -12.5t31.5 -4.5q31 0 55 23.5t47 69.5l-47 21q-14 -30 -42 -30q-15 0 -46 13q-39 17 -63 17q-32 0 -57.5 -24.5t-40.5 -73.5zM231 78q-45 0 -76 32t-31 81t31 81t76 32q46 0 76.5 -32t30.5 -81t-30.5 -81t-76.5 -32zM26 191
q0 -39 15.5 -75.5t44 -65.5t65.5 -45.5t80 -16.5t80.5 16.5t65.5 45t43.5 65.5t15.5 76t-15.5 76t-43.5 65.5t-65.5 45t-80.5 16.5t-80.5 -16.5t-65.5 -45t-43.5 -65.5t-15.5 -76z" />
    <glyph glyph-name="odieresis" unicode="&#xf6;" horiz-adv-x="462" 
d="M95 468h102v102h-102v-102zM265 468h102v102h-102v-102zM231 78q-45 0 -76 32t-31 81t31 81t76 32q46 0 76.5 -32t30.5 -81t-30.5 -81t-76.5 -32zM26 191q0 -39 15.5 -75.5t44 -65.5t65.5 -45.5t80 -16.5t80.5 16.5t65.5 45t43.5 65.5t15.5 76t-15.5 76t-43.5 65.5
t-65.5 45t-80.5 16.5t-80.5 -16.5t-65.5 -45t-43.5 -65.5t-15.5 -76z" />
    <glyph glyph-name="divide" unicode="&#xf7;" horiz-adv-x="600" 
d="M47 211h506v84h-506v-84zM229 46q0 -29 21 -50t50 -21t50 21t21 50t-21 50t-50 21t-50 -21t-21 -50zM229 460q0 -29 21 -50t50 -21t50 21t21 50t-21 50t-50 21t-50 -21t-21 -50z" />
    <glyph glyph-name="oslash" unicode="&#xf8;" horiz-adv-x="462" 
d="M330 234q8 -19 8 -43q0 -49 -30.5 -81t-76.5 -32q-29 0 -52 14zM62 -18l49 46q54 -40 120 -40q43 0 80.5 16.5t65.5 45t43.5 65.5t15.5 76q0 60 -34 111l48 45l-48 53l-49 -46q-56 40 -122 40q-43 0 -80.5 -16.5t-65.5 -45t-43.5 -65.5t-15.5 -76q0 -58 35 -111l-49 -47z
M132 146q-8 21 -8 45q0 49 31 81t76 32q32 0 53 -15z" />
    <glyph glyph-name="ugrave" unicode="&#xf9;" 
d="M186 446h74l-58 124h-124zM43 105q0 -53 35.5 -85t88.5 -32q31 0 55.5 13t41.5 44h2v-49l98 8v382l-98 -8v-205q0 -38 -17.5 -62.5t-45.5 -24.5q-62 0 -62 79v221l-98 -8v-273z" />
    <glyph glyph-name="uacute" unicode="&#xfa;" 
d="M148 446h74l108 124h-124zM43 105q0 -53 35.5 -85t88.5 -32q31 0 55.5 13t41.5 44h2v-49l98 8v382l-98 -8v-205q0 -38 -17.5 -62.5t-45.5 -24.5q-62 0 -62 79v221l-98 -8v-273z" />
    <glyph glyph-name="ucircumflex" unicode="&#xfb;" 
d="M67 446h98l39 59l39 -59h98l-82 124h-110zM43 105q0 -53 35.5 -85t88.5 -32q31 0 55.5 13t41.5 44h2v-49l98 8v382l-98 -8v-205q0 -38 -17.5 -62.5t-45.5 -24.5q-62 0 -62 79v221l-98 -8v-273z" />
    <glyph glyph-name="udieresis" unicode="&#xfc;" 
d="M68 468h102v102h-102v-102zM238 468h102v102h-102v-102zM43 105q0 -53 35.5 -85t88.5 -32q31 0 55.5 13t41.5 44h2v-49l98 8v382l-98 -8v-205q0 -38 -17.5 -62.5t-45.5 -24.5q-62 0 -62 79v221l-98 -8v-273z" />
    <glyph glyph-name="yacute" unicode="&#xfd;" 
d="M148 446h74l108 124h-124zM146 41l-98 -202l104 -8l264 545l-99 18l-113 -239l-114 239l-99 -18z" />
    <glyph glyph-name="thorn" unicode="&#xfe;" horiz-adv-x="481" 
d="M43 -169l98 8v195q28 -27 56.5 -36.5t61.5 -9.5q82 0 139 54t57 149t-57 149t-139 54q-32 0 -63.5 -14.5t-54.5 -41.5v386l-98 -8v-885zM141 191q0 48 30.5 80.5t75.5 32.5q47 0 78.5 -32t31.5 -81t-31.5 -81t-78.5 -32q-45 0 -75.5 32.5t-30.5 80.5z" />
    <glyph glyph-name="ydieresis" unicode="&#xff;" 
d="M68 468h102v102h-102v-102zM238 468h102v102h-102v-102zM146 41l-98 -202l104 -8l264 545l-99 18l-113 -239l-114 239l-99 -18z" />
  </font>
</defs>
</svg>
